<svg width="60" height="60" viewBox="0 0 60 60" fill="none">
<ellipse cx="31.5" cy="29.5" rx="24.5" ry="19.5" fill="white"/>
<path d="M55.6 15.0001C55.6 14.9751 55.575 14.9751 55.575 14.9501C55.15 14.2501 54.575 13.6501 53.975 13.2751L32.275 0.550098C31.025 -0.174902 28.975 -0.174902 27.725 0.550098L6.025 13.2751C4.775 14.0001 3.75 15.8001 3.75 17.2751V42.7251C3.75 43.4501 4 44.2751 4.425 45.0001C4.45 45.0251 4.475 45.0751 4.5 45.1001C4.875 45.7751 5.425 46.3751 6.025 46.7251L27.725 59.4501C28.975 60.1751 31.025 60.1751 32.275 59.4501L53.975 46.7251C54.575 46.3751 55.125 45.7751 55.5 45.1001C55.525 45.0751 55.55 45.0251 55.575 45.0001C56 44.2751 56.25 43.4501 56.25 42.7251V17.2751C56.25 16.5501 56 15.7251 55.6 15.0001ZM48.975 30.9751V29.0001H50.9V27.0251H52.85V29.0001H54.8V30.9751H52.85V32.9751H50.9V30.9751H48.975ZM41.675 30.9751V29.0001H43.625V27.0251H45.55V29.0001H47.5V30.9751H45.55V32.9751H43.625V30.9751H41.675ZM30 47.7751C23.575 47.7751 17.925 44.2251 14.9 38.9501C13.375 36.3251 12.5 33.2751 12.5 30.0001C12.5 20.2001 20.35 12.2251 30 12.2251C36.45 12.2501 42.075 15.7751 45.1 21.0251L45.15 21.1001L37.575 25.5501C36.05 22.8751 33.225 21.1251 30 21.1001C25.175 21.1001 21.25 25.1001 21.25 30.0001C21.25 31.6251 21.675 33.1501 22.45 34.4751C23.95 37.1251 26.775 38.9001 30 38.9001C33.225 38.8751 36.05 37.1251 37.55 34.4751L37.575 34.4501L45.15 38.9001C45.15 38.9251 45.125 38.9251 45.125 38.9501C42.05 44.2501 36.425 47.7501 30 47.7751Z" fill="#659AD2"/>
<path d="M22.45 34.475L30 30L37.55 34.475C36.05 37.125 33.225 38.875 30 38.9C26.775 38.9 23.95 37.125 22.45 34.475ZM55.5 45.1C55.125 45.775 54.575 46.375 53.975 46.725L32.275 59.45C31.025 60.175 28.975 60.175 27.725 59.45L6.025 46.725C5.425 46.375 4.875 45.775 4.5 45.1L14.9 38.95C17.925 44.225 23.575 47.775 30 47.775C36.425 47.75 42.05 44.25 45.125 38.95L55.5 45.1Z" fill="#004482"/>
<path d="M55.6 15C55.6 14.975 55.575 14.975 55.575 14.95L45.15 21.0999L37.575 25.55L30 30L37.55 34.475L45.125 38.95L55.5 45.1C55.525 45.075 55.55 45.025 55.575 45C56 44.275 56.25 43.45 56.25 42.725V17.275C56.25 16.55 56 15.725 55.6 15ZM47.5 30.975H45.55V32.975H43.625V30.975H41.675V29H43.625V27.025H45.55V29H47.5V30.975ZM54.8 30.975H52.85V32.975H50.9V30.975H48.975V29H50.9V27.025H52.85V29H54.8V30.975Z" fill="#00599C"/>
</svg>
