<svg width="60" height="60" viewBox="0 0 60 60" fill="none">
<path d="M58.5003 24.4219C56.4847 23.25 53.8128 23.1094 51.5628 23.7656C51.2815 21.3281 49.6878 19.2187 47.8128 17.7187L47.0628 17.1094L46.4065 17.8594C45.1409 19.3125 44.7659 21.75 44.9534 23.625C45.0941 24.9844 45.5159 26.3906 46.3597 27.5156C45.7034 27.8906 45.0003 28.4062 44.344 28.6406C43.0315 29.1094 41.5784 29.5781 40.1722 29.5781H37.0315V22.9688H30.9378V11.25H23.9066V16.875H12.1878V22.9688H6.09405V29.5312H0.844051L0.750301 30.2344C0.515926 33.2344 0.890926 36.1406 2.15655 38.9062L2.67218 39.9375L2.71905 40.0312C6.42218 46.3125 12.8909 48.9375 19.9691 48.9375C33.6566 48.9375 44.9534 42.7969 50.1097 29.9062C53.5784 30.0938 57.1409 29.0625 58.8284 25.7344L59.2503 24.8906L58.5003 24.4219ZM13.1253 18.2812H17.8128V23.4375H13.1253V18.2812ZM19.2659 39C19.2659 39.7969 18.6097 40.4531 17.8128 40.4531C17.0159 40.4531 16.3597 39.7969 16.3597 39C16.3597 38.2031 17.0159 37.5469 17.8128 37.5469C18.6097 37.5938 19.2659 38.2031 19.2659 39ZM13.1253 24.375H17.8128V29.5312H13.1253V24.375ZM7.03155 24.375H12.1878V29.5312H7.03155V24.375ZM20.0159 47.9062C12.6097 47.8594 8.6253 45.375 5.34405 42.0938C6.32843 42.1406 7.26593 42.1875 8.10968 42.1875C8.85968 42.1875 9.60968 42.1875 10.3128 42.1406C12.1409 42.0469 13.7347 41.8125 15.0472 41.4375C16.1253 43.9219 18.0941 46.2188 21.6097 47.9062H20.0159ZM23.9066 29.5312H18.7503V24.375H23.9066V29.5312ZM23.9066 23.4375H18.7503V18.2812H23.9066V23.4375ZM30.0003 29.5312H24.8441V24.375H30.0003V29.5312ZM30.0003 23.4375H24.8441V18.2812H30.0003V23.4375ZM30.0003 17.3438H24.8441V12.1875H30.0003V17.3438ZM36.094 29.5312H30.9378V24.375H36.094V29.5312ZM18.1878 38.0625C18.0941 38.0156 17.9534 37.9688 17.8128 37.9688C17.2503 37.9688 16.7816 38.4375 16.7816 39C16.7816 39.5625 17.2503 40.0312 17.8128 40.0312C18.3753 40.0312 18.8441 39.5625 18.8441 39C18.8441 38.8594 18.7972 38.7188 18.7503 38.625C18.6566 38.7656 18.5628 38.8594 18.3753 38.8594C18.1409 38.8594 17.9534 38.6719 17.9534 38.4375C18.0003 38.25 18.0941 38.1094 18.1878 38.0625Z" fill="#019BC6"/>
</svg>
