<svg width="60" height="60" viewBox="0 0 60 60" fill="none">
<path d="M58.4731 27.3646L32.637 1.52992C31.1501 0.0421094 28.737 0.0421094 27.2478 1.52992L21.8839 6.89523L28.6892 13.7005C30.2712 13.1666 32.0843 13.5248 33.3448 14.7852C33.9455 15.3865 34.3649 16.1446 34.555 16.973C34.745 17.8013 34.6982 18.6665 34.4197 19.4695L40.9784 26.0291C42.5651 25.4821 44.3965 25.8355 45.6631 27.1049C47.435 28.8754 47.435 31.7455 45.6631 33.517C45.242 33.9382 44.7421 34.2724 44.1918 34.5004C43.6416 34.7284 43.0518 34.8458 42.4561 34.8458C41.8605 34.8458 41.2707 34.7284 40.7205 34.5004C40.1702 34.2724 39.6703 33.9382 39.2492 33.517C38.6166 32.8839 38.1853 32.0779 38.0097 31.2004C37.8342 30.3228 37.9221 29.4129 38.2625 28.5852L32.1462 22.4685L32.1453 38.5659C32.589 38.7844 32.9942 39.0738 33.3448 39.4227C35.1162 41.1932 35.1162 44.0624 33.3448 45.8366C31.5734 47.6071 28.7023 47.6071 26.9328 45.8366C25.1618 44.0629 25.0165 41.1937 26.787 39.4227C27.2248 38.9854 27.6565 38.6549 28.1253 38.4337V22.1873C27.6565 21.966 27.2253 21.6379 26.7865 21.1977C25.4454 19.8571 25.1947 17.8884 25.8828 16.2402L19.2111 9.53102L1.51388 27.2451C0.025597 28.7343 0.034972 31.1474 1.52325 32.6357L27.3636 58.4704C28.8509 59.9582 31.2659 59.9582 32.7556 58.4704L58.4712 32.7557C59.9595 31.267 59.9609 28.8524 58.4731 27.3646V27.3646Z" fill="#F34F29"/>
</svg>
