<svg width="40" height="40" viewBox="0 0 40 40" fill="none">
<path d="M38.7899 19.6936C38.7899 17.2898 36.9686 15.267 34.5236 14.6898L39.9996 0.0351562H12.8621L18.3505 14.7361C15.9824 15.3598 14.2368 17.3473 14.2368 19.7058C14.2368 21.4389 15.1924 22.9758 16.6439 23.9233C16.0714 24.663 15.4086 25.3452 14.6577 25.992C13.2443 27.1945 11.6768 28.1186 9.98363 28.7314C8.45551 27.7952 7.79363 26.1423 8.39176 24.6627C10.7221 24.0158 12.4168 22.0395 12.4168 19.7167C12.4168 16.8627 9.85676 14.5505 6.72301 14.5505C3.57738 14.5505 1.01895 16.8736 1.01895 19.7286C1.01895 21.1389 1.65488 22.4327 2.67426 23.3567C2.58488 23.5192 2.49613 23.6802 2.40676 23.8536C1.55363 25.4492 0.585509 27.252 0.215509 29.2748C-0.522928 33.3189 0.686759 36.5673 3.60301 38.4045C5.24613 39.4336 7.0552 39.9536 9.00363 39.9536C12.3518 39.9536 15.7527 38.4277 19.0377 36.948C21.3814 35.897 23.8008 34.7983 26.1824 34.2673C27.0614 34.0708 27.978 33.9548 28.9461 33.828C30.9064 33.5739 32.9318 33.308 34.753 32.3486C36.8796 31.228 38.3311 29.3552 38.7521 27.2058C39.0693 25.5527 38.7521 23.8889 37.9364 22.4327C38.4936 21.628 38.7913 20.6723 38.7896 19.6936H38.7899ZM36.3071 19.6936C36.3071 21.2998 34.8677 22.6061 33.0977 22.6061C31.3277 22.6061 29.8883 21.2998 29.8883 19.6936C29.8883 19.1733 30.0411 18.6767 30.3083 18.2492C30.4099 18.0867 30.538 17.9258 30.6646 17.7867C30.7987 17.6437 30.9483 17.5159 31.1105 17.4058L31.1239 17.3936C31.2252 17.3242 31.3399 17.2545 31.4546 17.1861C31.4546 17.1861 31.4671 17.1861 31.4671 17.1739C31.518 17.1508 31.5693 17.1164 31.6208 17.0933C31.633 17.0933 31.6452 17.0811 31.6583 17.0811C31.7099 17.0592 31.7733 17.0361 31.8364 17.0127C31.8967 16.9916 31.9562 16.9685 32.0149 16.9433C32.0274 16.9433 32.0405 16.9308 32.0527 16.9308C32.1039 16.9202 32.1552 16.8967 32.2055 16.8858C32.2189 16.8858 32.2446 16.8736 32.2568 16.8736C32.3202 16.8627 32.3714 16.8505 32.4349 16.8392H32.4483L32.6389 16.8039C32.6521 16.8039 32.6764 16.8039 32.6899 16.793C32.7411 16.793 32.7914 16.7808 32.8427 16.7808H32.9061C32.9696 16.7808 33.0343 16.7698 33.1099 16.7698H33.2758C33.3258 16.7698 33.3652 16.7698 33.4152 16.7808H33.4408C33.5433 16.7933 33.6446 16.8039 33.7471 16.8273C35.1986 17.1042 36.3071 18.2836 36.3071 19.6936ZM16.4143 2.34609H36.4461L31.8489 14.6545C31.6583 14.6898 31.4668 14.747 31.2764 14.8045L26.4377 5.84828L21.5852 14.7467C21.3936 14.6895 21.1899 14.6542 20.9871 14.6198L16.4143 2.34609ZM25.5196 18.6873C25.278 17.6008 24.6664 16.6305 23.8008 15.9139L26.4377 11.0836L29.0986 16.0177C28.3089 16.7342 27.7361 17.6473 27.5068 18.6873H25.5196ZM19.1402 16.8623C19.2036 16.8498 19.2549 16.8392 19.3183 16.827H19.3561C19.4074 16.8161 19.4589 16.8161 19.5089 16.8036H19.5602C19.6114 16.8036 19.6493 16.7927 19.7005 16.7927H20.1974C20.2474 16.7927 20.2864 16.8036 20.3243 16.8036C20.3499 16.8036 20.3621 16.8036 20.3877 16.8161C20.4389 16.827 20.4768 16.827 20.5283 16.8392C20.5402 16.8392 20.5536 16.8392 20.5793 16.8502C20.643 16.8623 20.7064 16.8733 20.7574 16.8855H20.7699C20.8211 16.8964 20.8724 16.9073 20.9224 16.9308C20.9358 16.9308 20.948 16.943 20.9736 16.943C21.0114 16.9539 21.0627 16.9661 21.1005 16.9892C21.1139 16.9892 21.1261 17.0002 21.1396 17.0002C21.1896 17.0236 21.2411 17.0358 21.2924 17.0589H21.3046C21.368 17.0808 21.4193 17.1039 21.4705 17.1395H21.483C21.5339 17.1627 21.5852 17.1967 21.6364 17.2198C21.6489 17.2198 21.6489 17.2323 21.6608 17.2323C21.7121 17.2542 21.7502 17.2895 21.8014 17.3127L21.8149 17.3236C21.9674 17.4277 22.1077 17.5436 22.2468 17.6595L22.2602 17.6705C22.3874 17.7973 22.5143 17.9364 22.6168 18.0867C22.9477 18.5492 23.1393 19.0927 23.1393 19.682C23.1393 21.2886 21.6999 22.5936 19.9299 22.5936C18.1599 22.5936 16.7205 21.2886 16.7205 19.682C16.7074 18.3295 17.7389 17.1858 19.1402 16.8623ZM6.60832 16.7805C8.37863 16.7805 9.8177 18.0867 9.8177 19.693C9.8177 21.2995 8.37863 22.6055 6.60832 22.6055C4.83832 22.6055 3.39895 21.2995 3.39895 19.693C3.39895 18.0867 4.83832 16.7805 6.60832 16.7805ZM36.2302 26.8014C35.9505 28.2795 34.9433 29.5748 33.4664 30.3486C32.0783 31.0773 30.3718 31.308 28.5761 31.5389C27.5961 31.6658 26.5646 31.8048 25.5708 32.0245C22.9221 32.6142 20.3755 33.7702 17.9049 34.8786C14.7468 36.3008 11.7658 37.6411 9.00363 37.6411C7.56426 37.6411 6.2777 37.2714 5.05582 36.4973C2.25426 34.7408 2.39332 31.4473 2.72551 29.6442C3.03051 27.9561 3.88395 26.373 4.69926 24.8592C4.74926 24.7664 4.78832 24.6858 4.83832 24.593C5.11926 24.6858 5.41207 24.7555 5.71738 24.8017C5.23395 27.2517 6.60832 29.7823 9.28301 31.0311L9.76738 31.2617L10.2889 31.0883C12.518 30.3717 14.5808 29.2048 16.4021 27.6445C17.4336 26.7658 18.3127 25.8186 19.0511 24.7895C19.3439 24.8361 19.6371 24.8483 19.9299 24.8483C22.5789 24.8483 24.8068 23.1952 25.4439 20.9761H27.5827C28.2199 23.2064 30.4486 24.848 33.0977 24.848C34.1549 24.848 35.1352 24.5823 35.9749 24.1317C36.3071 24.9983 36.4083 25.8992 36.2302 26.8014Z" fill="#99425B"/>
</svg>
