<svg width="70" height="70" viewBox="0 0 70 70" fill="none">
<path d="M1.0943 49.4692H3.34086V40.5972L6.81898 48.3317C7.22914 49.2679 7.79078 49.5988 8.89273 49.5988C9.99469 49.5988 10.535 49.2679 10.9452 48.3317L14.4233 40.5972V49.4692H16.6698V40.612C16.6698 39.7479 16.3242 39.3295 15.6111 39.1141C13.9043 38.5814 12.7591 39.0424 12.2407 40.1947L8.82766 47.828L5.52289 40.1942C5.02578 39.0424 3.8593 38.5814 2.1525 39.1135C1.43938 39.3295 1.09375 39.7474 1.09375 40.6114V49.4692H1.0943ZM18.5385 42.2471H20.7845V47.1351C20.7638 47.4003 20.8698 48.0238 22.1003 48.0435C22.7281 48.0533 26.9467 48.0435 26.9861 48.0435V42.2231H29.2376C29.248 42.2231 29.2354 50.1604 29.2354 50.1932C29.2474 52.151 26.8067 52.576 25.6812 52.6088H18.5872V51.0972C18.5992 51.0972 25.6763 51.0988 25.6938 51.0967C27.1403 50.9441 26.9691 50.2255 26.9686 49.9838V49.3942H22.1938C19.9724 49.374 18.5571 48.4044 18.5391 47.2888C18.538 47.1865 18.5877 42.2963 18.5385 42.2471ZM30.9695 49.4692H37.4292C38.1855 49.4692 38.9205 49.3111 39.5035 49.0377C40.4753 48.5914 40.9505 47.9866 40.9505 47.1936V45.5519C40.9505 44.9038 40.4108 44.2985 39.352 43.896C38.7904 43.6794 38.0986 43.5651 37.4287 43.5651H34.7063C33.7991 43.5651 33.367 43.2917 33.2593 42.6868C33.238 42.6146 33.238 42.5572 33.238 42.485V41.4624C33.238 41.4049 33.238 41.347 33.2593 41.2753C33.367 40.8143 33.6049 40.6847 34.4045 40.6125L34.6205 40.5983H41.037V39.101H34.7288C33.8215 39.101 33.3462 39.1584 32.9142 39.288C31.5749 39.7058 30.9909 40.3681 30.9909 41.5203V42.8306C30.9909 43.8391 32.1366 44.7031 34.0588 44.9049C34.2754 44.9186 34.4909 44.9339 34.7069 44.9339H37.0404C37.1268 44.9339 37.2132 44.9339 37.2783 44.9476C37.9914 45.005 38.2933 45.1352 38.5098 45.3938C38.5653 45.4451 38.6094 45.5075 38.6391 45.577C38.6688 45.6464 38.6834 45.7214 38.6821 45.7969V47.1077C38.6821 47.2658 38.5744 47.4676 38.3584 47.6404C38.1642 47.8132 37.8399 47.9286 37.4079 47.9576L37.17 47.9718H30.9695V49.4692ZM54.967 46.8628C54.967 48.4033 56.1121 49.2674 58.4232 49.4407C58.6392 49.4549 58.8552 49.4692 59.0713 49.4692H64.9261V47.9718H59.0286C57.7106 47.9718 57.2141 47.6404 57.2141 46.848V39.0999H54.9675V46.8628H54.967ZM42.3845 46.9404V41.6002C42.3845 40.2439 43.3371 39.4209 45.2205 39.1611C45.4212 39.1323 45.6237 39.1179 45.8265 39.1179H50.0916C50.3081 39.1179 50.5028 39.1321 50.7188 39.1611C52.6023 39.4209 53.5555 40.2434 53.5555 41.6002V46.9404C53.5555 48.0418 53.1508 48.6302 52.2184 49.0142L54.4321 51.0119H51.823L50.0325 49.3953L48.23 49.5096H45.8265C45.38 49.5068 44.9359 49.4437 44.5063 49.322C43.0773 48.9327 42.3845 48.1818 42.3845 46.9404ZM44.8098 46.8108C44.8098 46.883 44.8312 46.9557 44.853 47.0421C44.9827 47.6628 45.5678 48.009 46.4548 48.009H48.4958L46.6211 46.3164H49.2302L50.8648 47.793C51.1667 47.6317 51.3647 47.3867 51.4341 47.0711C51.4555 46.9989 51.4555 46.9267 51.4555 46.8545V41.7314C51.4555 41.674 51.4555 41.6013 51.4341 41.5291C51.304 40.9516 50.7194 40.6202 49.8537 40.6202H46.4543C45.459 40.6202 44.8093 41.0533 44.8093 41.7314V46.8108H44.8098ZM66.9025 36.6143C65.5216 36.5766 64.4667 36.7051 63.5644 37.0852C63.3079 37.1935 62.8994 37.1962 62.8578 37.5172C62.9984 37.6654 63.0202 37.8858 63.1323 38.0674C63.3478 38.4157 63.7115 38.8827 64.0358 39.1272C64.3896 39.3946 64.7549 39.6812 65.1356 39.9131C65.8109 40.3254 66.5656 40.5606 67.217 40.9729C67.6003 41.2168 67.9809 41.5231 68.3555 41.7981C68.5409 41.9332 68.6645 42.1449 68.9057 42.2296V42.1908C68.7794 42.03 68.7466 41.8091 68.6306 41.6406L68.1198 41.1299C67.6205 40.467 66.9873 39.8857 66.313 39.4023C65.7759 39.0167 64.5739 38.4956 64.3497 37.8705L64.3103 37.8317C64.6909 37.7885 65.1372 37.6506 65.4883 37.5566C66.0789 37.398 66.6066 37.439 67.2164 37.2815L68.0411 37.0452V36.8888C67.7332 36.5728 67.5128 36.1538 67.177 35.8678C66.2982 35.1192 65.3379 34.371 64.3497 33.7465C63.8017 33.4009 63.1241 33.1761 62.5428 32.883C62.3481 32.784 62.0047 32.7331 61.8751 32.5685C61.5694 32.1797 61.4037 31.687 61.168 31.2336C60.6646 30.2542 60.1931 29.2587 59.7543 28.2488C59.4568 27.5679 59.2621 26.8963 58.8908 26.2855C57.1074 23.3537 55.1879 21.584 52.2145 19.8449C51.5818 19.4747 50.82 19.3292 50.0155 19.1384L48.7195 19.0596C48.4564 18.9497 48.1819 18.627 47.9341 18.4706C46.9487 17.8483 44.4221 16.4948 43.6926 18.2749C43.2321 19.3981 44.3816 20.4941 44.7923 21.0634C45.0805 21.4626 45.4502 21.9099 45.6564 22.3589C45.792 22.6542 45.815 22.9501 45.9315 23.2624C46.2164 24.0313 46.4652 24.8685 46.8344 25.5789C47.0209 25.9388 47.227 26.3178 47.4627 26.6393C47.6071 26.8362 47.8554 26.9237 47.8942 27.2283C47.652 27.5674 47.6377 28.0945 47.5016 28.5238C46.888 30.4592 47.1193 32.8649 48.0123 34.2972C48.2863 34.7374 48.9316 35.6803 49.8187 35.3182C50.5947 35.0021 50.4219 34.0227 50.6439 33.1581C50.6942 32.9628 50.663 32.8185 50.7615 32.6872V32.7266L51.4686 34.1403C51.992 34.983 52.92 35.8629 53.707 36.4574C54.1149 36.7653 54.4365 37.2985 54.9637 37.4784V37.4385H54.9248C54.822 37.2793 54.6629 37.2137 54.5316 37.0852C54.2243 36.7838 53.8825 36.4098 53.6287 36.0642C52.9129 35.0929 52.2807 34.0292 51.7043 32.9224C51.4292 32.3941 51.1902 31.8111 50.9584 31.273C50.8687 31.0657 50.8698 30.7518 50.6838 30.6452C50.429 31.0389 50.0555 31.3578 49.8586 31.8231C49.5447 32.5669 49.5042 33.4742 49.3877 34.4148L49.309 34.4536C48.7616 34.3218 48.5696 33.7585 48.3662 33.2756C47.8521 32.0545 47.7564 30.0874 48.2092 28.6813C48.3262 28.3171 48.8551 27.1714 48.6407 26.8351C48.5384 26.4999 48.201 26.3063 48.0129 26.0492C47.7661 25.7053 47.5555 25.3367 47.3845 24.9495C46.9634 23.9974 46.7671 22.9282 46.3247 21.9652C46.1125 21.5047 45.7548 21.0393 45.4606 20.6302C45.1352 20.1763 44.7705 19.8428 44.5178 19.2948C44.4281 19.1001 44.3062 18.7878 44.4391 18.5877C44.4812 18.4526 44.5419 18.3963 44.6753 18.352C44.9028 18.1764 45.5372 18.4105 45.7745 18.5089C46.4045 18.7709 46.9301 19.0197 47.4638 19.373C47.7198 19.5431 47.9784 19.8712 48.2885 19.962H48.6418C49.1947 20.0888 49.8143 20.0008 50.3305 20.1578C51.2438 20.4356 52.062 20.867 52.8046 21.3363C55.0681 22.7658 56.9182 24.8002 58.1848 27.2272C58.3882 27.6182 58.4768 27.9906 58.6556 28.4052C59.0177 29.2408 59.4738 30.101 59.8336 30.9186C60.1929 31.734 60.5434 32.557 61.0515 33.2357C61.3184 33.5923 62.3498 33.7837 62.8184 33.9817C63.1471 34.1206 63.6852 34.2655 63.9964 34.4525C64.5909 34.8113 65.1673 35.2384 65.7245 35.631C66.0029 35.829 66.8598 36.2594 66.9025 36.6143ZM49.3484 21.6524C49.1103 21.6485 48.8727 21.6749 48.6413 21.7311V21.7699H48.6806C48.8179 22.0527 49.0602 22.2342 49.2302 22.477L49.6234 23.3017L49.6623 23.2629C49.9056 23.0917 50.0166 22.8178 50.0155 22.3988C49.9177 22.296 49.9034 22.1675 49.8192 22.0456C49.7077 21.8815 49.49 21.7896 49.3484 21.6524Z" fill="#00618A"/>
</svg>
