<svg width="70" height="70" viewBox="0 0 70 70" fill="none" >
<path d="M62.5219 44.1594C62.3634 44.1594 62.2059 44.1178 62.067 44.0369L60.6177 43.1794C60.4012 43.0585 60.5067 43.0153 60.5784 42.9907C60.8671 42.8901 60.9256 42.8666 61.2335 42.6927C61.2658 42.6746 61.3079 42.6812 61.3412 42.7009L62.4541 43.362C62.4748 43.3731 62.4979 43.3789 62.5214 43.3789C62.5449 43.3789 62.568 43.3731 62.5887 43.362L66.9292 40.8568C66.9497 40.8447 66.9666 40.8275 66.9783 40.8069C66.99 40.7863 66.9961 40.7629 66.9959 40.7392V35.7298C66.996 35.7058 66.9898 35.6821 66.978 35.6611C66.9662 35.6402 66.9492 35.6226 66.9287 35.6101L62.5898 33.107C62.5692 33.0957 62.5462 33.0898 62.5228 33.0898C62.4993 33.0898 62.4763 33.0957 62.4558 33.107L58.1174 35.6106C58.0968 35.6231 58.0798 35.6405 58.0678 35.6614C58.0559 35.6822 58.0494 35.7058 58.0491 35.7298V40.7392C58.0491 40.7873 58.0759 40.8327 58.1174 40.8552L59.3063 41.5426C59.9516 41.8647 60.347 41.4852 60.347 41.1034V36.157C60.347 36.0875 60.4034 36.0323 60.4728 36.0323H61.0235C61.0919 36.0323 61.1488 36.0875 61.1488 36.157V41.1034C61.1488 41.9642 60.6801 42.458 59.8636 42.458C59.6126 42.458 59.4152 42.458 58.8639 42.1868L57.7259 41.5316C57.5874 41.4509 57.4725 41.3354 57.3927 41.1964C57.3129 41.0575 57.2709 40.9 57.2709 40.7398V35.7304C57.2709 35.405 57.4442 35.1015 57.7259 34.9396L62.0664 32.4311C62.2063 32.3549 62.363 32.315 62.5222 32.315C62.6815 32.315 62.8382 32.3549 62.978 32.4311L67.3186 34.9396C67.5997 35.102 67.7741 35.4055 67.7741 35.7304V40.7398C67.7739 40.9 67.7317 41.0574 67.6518 41.1963C67.5719 41.3352 67.457 41.4508 67.3186 41.5316L62.978 44.0374C62.8395 44.1178 62.6821 44.1599 62.5219 44.1594ZM63.8634 40.708C61.963 40.708 61.5655 39.8358 61.5655 39.1046C61.5656 39.0713 61.5789 39.0395 61.6025 39.016C61.6261 38.9926 61.658 38.9794 61.6912 38.9794H62.2523C62.2824 38.9793 62.3114 38.9899 62.3343 39.0094C62.3572 39.0288 62.3723 39.0558 62.377 39.0855C62.4612 39.657 62.7145 39.9452 63.8634 39.9452C64.7773 39.9452 65.1666 39.7384 65.1666 39.2528C65.1666 38.9728 65.0562 38.7655 63.6354 38.6261C62.4476 38.5085 61.7131 38.2466 61.7131 37.2955C61.7131 36.42 62.4514 35.8972 63.6884 35.8972C65.0791 35.8972 65.7671 36.3801 65.8541 37.4159C65.8554 37.4333 65.8532 37.4508 65.8476 37.4674C65.8419 37.4839 65.833 37.4991 65.8213 37.5121C65.8094 37.5246 65.7951 37.5345 65.7793 37.5413C65.7636 37.5482 65.7466 37.5518 65.7294 37.552H65.1655C65.1371 37.5521 65.1095 37.5424 65.0873 37.5246C65.0651 37.5068 65.0497 37.4819 65.0436 37.4541C64.908 36.8526 64.5798 36.6606 63.6879 36.6606C62.6898 36.6606 62.5739 37.009 62.5739 37.2688C62.5739 37.5843 62.7106 37.6762 64.0587 37.8545C65.3925 38.0311 66.0263 38.2805 66.0263 39.2184C66.0269 40.1661 65.2383 40.708 63.8634 40.708ZM53.5844 37.4224C53.7555 37.3223 53.8611 37.1397 53.8611 36.9412V35.6538C53.8611 35.4559 53.7561 35.2732 53.5844 35.1731L49.0103 32.5175C48.9257 32.4683 48.8297 32.4423 48.7318 32.4421C48.634 32.4419 48.5378 32.4676 48.453 32.5164L43.8505 35.1737C43.7661 35.2225 43.6961 35.2927 43.6473 35.3772C43.5985 35.4616 43.5728 35.5574 43.5727 35.6549V40.9684C43.5727 41.168 43.6799 41.3528 43.8538 41.4518L48.4273 44.0577C48.5958 44.1545 48.8025 44.155 48.9726 44.0609L51.7387 42.5231C51.7817 42.4992 51.8177 42.4643 51.8428 42.422C51.8679 42.3796 51.8813 42.3313 51.8817 42.2821C51.882 42.2328 51.8692 42.1844 51.8447 42.1417C51.8201 42.099 51.7847 42.0636 51.742 42.0391L47.111 39.3813C47.0685 39.3571 47.0332 39.3221 47.0086 39.2799C46.984 39.2376 46.9711 39.1896 46.971 39.1407V37.4749C46.971 37.3754 47.0241 37.2841 47.1099 37.2348L48.552 36.4036C48.5941 36.3792 48.642 36.3663 48.6907 36.3663C48.7394 36.3663 48.7872 36.3792 48.8293 36.4036L50.2714 37.2348C50.3137 37.2591 50.3489 37.294 50.3733 37.3362C50.3978 37.3783 50.4108 37.4262 50.4109 37.4749V38.7852C50.4106 38.8342 50.4233 38.8824 50.4477 38.9249C50.4721 38.9674 50.5073 39.0027 50.5497 39.0271C50.5922 39.0516 50.6404 39.0643 50.6894 39.0641C50.7384 39.0639 50.7864 39.0507 50.8287 39.0259L53.5844 37.4224ZM48.6636 37.173C48.6799 37.1639 48.6982 37.1592 48.7169 37.1592C48.7356 37.1592 48.7539 37.1639 48.7702 37.173L49.6534 37.6833C49.6862 37.7024 49.7065 37.738 49.7065 37.7757V38.7956C49.7065 38.8339 49.6862 38.8689 49.6534 38.888L48.7702 39.3977C48.754 39.4071 48.7356 39.4121 48.7169 39.4121C48.6982 39.4121 48.6798 39.4071 48.6636 39.3977L47.7809 38.888C47.7646 38.8788 47.7511 38.8653 47.7417 38.8491C47.7322 38.8328 47.7273 38.8144 47.7273 38.7956V37.7757C47.7273 37.738 47.7476 37.7024 47.7809 37.6833L48.6636 37.173ZM36.6865 39.2949C36.6865 39.3441 36.6602 39.3901 36.617 39.4152L35.0366 40.3263C35.0155 40.3387 34.9915 40.3452 34.9671 40.3452C34.9427 40.3452 34.9187 40.3387 34.8977 40.3263L33.3172 39.4152C33.2961 39.403 33.2786 39.3855 33.2664 39.3643C33.2542 39.3432 33.2478 39.3193 33.2477 39.2949V37.4695C33.2477 37.4202 33.2745 37.3737 33.3172 37.3486L34.8977 36.4364C34.9187 36.4238 34.9428 36.4171 34.9674 36.4171C34.9919 36.4171 35.016 36.4238 35.0371 36.4364L36.6181 37.3486C36.6391 37.3611 36.6564 37.3788 36.6685 37.3999C36.6806 37.4211 36.687 37.4451 36.687 37.4695V39.2949H36.6865ZM37.1136 25.7784C37.0712 25.7552 37.0236 25.7434 36.9753 25.7442C36.927 25.7449 36.8797 25.7582 36.8381 25.7826C36.7964 25.8071 36.7618 25.8419 36.7377 25.8837C36.7135 25.9255 36.7006 25.9729 36.7002 26.0212V33.0841C36.7 33.1181 36.691 33.1516 36.674 33.1811C36.6571 33.2106 36.6327 33.2352 36.6034 33.2525C36.5737 33.2694 36.5402 33.2783 36.506 33.2783C36.4719 33.2783 36.4383 33.2694 36.4087 33.2525L35.2559 32.588C35.1714 32.5394 35.0757 32.5138 34.9783 32.5138C34.8809 32.5138 34.7852 32.5394 34.7008 32.588L30.0972 35.2448C30.0126 35.2936 29.9424 35.3638 29.8935 35.4484C29.8446 35.533 29.8189 35.6289 29.8188 35.7266V41.0416C29.8188 41.2402 29.9249 41.4234 30.0966 41.5234L34.7002 44.1818C34.872 44.2813 35.0841 44.2813 35.2564 44.1818L39.8611 41.5234C39.9455 41.4745 40.0156 41.4042 40.0643 41.3196C40.1131 41.2351 40.1388 41.1392 40.1389 41.0416V27.7925C40.1389 27.5912 40.0295 27.4053 39.854 27.3069L37.1136 25.7784ZM20.9119 32.488C20.9963 32.4391 21.0921 32.4134 21.1897 32.4134C21.2872 32.4134 21.3831 32.4391 21.4675 32.488L26.0711 35.1441C26.2428 35.2437 26.3489 35.4274 26.3489 35.6259V40.9427C26.3489 41.1412 26.2428 41.3249 26.0711 41.4245L21.468 44.0828C21.3834 44.1315 21.2876 44.1571 21.19 44.1571C21.0924 44.1571 20.9965 44.1315 20.9119 44.0828L16.3099 41.4245C16.2255 41.3755 16.1554 41.3052 16.1067 41.2206C16.0579 41.1361 16.0322 41.0402 16.0321 40.9427V35.6254C16.0321 35.4274 16.1382 35.2437 16.3099 35.1441L20.9119 32.488ZM12.5403 35.5816C12.5403 35.3815 12.4353 35.1977 12.2625 35.0988L7.66055 32.4502C7.58326 32.4054 7.49609 32.3804 7.4068 32.3775H7.35922C7.26994 32.3805 7.18278 32.4055 7.10547 32.4502L2.50297 35.0988C2.4183 35.1478 2.34801 35.2182 2.29915 35.3029C2.25029 35.3877 2.22459 35.4838 2.22461 35.5816L2.23445 42.7129C2.23445 42.8124 2.28641 42.9048 2.37336 42.953C2.41499 42.9782 2.46275 42.9916 2.51145 42.9916C2.56014 42.9916 2.6079 42.9782 2.64953 42.953L5.38391 41.3867C5.55672 41.2839 5.66227 41.1029 5.66227 40.9044V37.5728C5.66227 37.3738 5.76727 37.1905 5.93953 37.091L7.10438 36.4205C7.18857 36.3711 7.28453 36.3452 7.38219 36.3456C7.47734 36.3456 7.57469 36.3697 7.65945 36.4205L8.8232 37.091C8.99547 37.1905 9.10156 37.3738 9.10156 37.5728V40.9044C9.10156 41.1029 9.2082 41.285 9.37992 41.3867L12.1143 42.953C12.1565 42.9771 12.2042 42.9897 12.2528 42.9896C12.3013 42.9894 12.349 42.9766 12.3911 42.9523C12.4331 42.928 12.4681 42.8931 12.4924 42.8511C12.5168 42.8091 12.5297 42.7615 12.5299 42.7129L12.5403 35.5816Z" fill="#83CD29"/>
</svg>
