<svg width="60" height="60" viewBox="0 0 60 60" fill="none">
<g clip-path="url(#clip0_50_617)">
<path d="M59.7546 33.8093C61.8543 17.3723 50.2463 2.34498 33.8393 0.245363C17.4323 -1.85426 2.34498 9.75365 0.245363 26.1607C-1.85426 42.5677 9.75365 57.625 26.1607 59.7546C42.5977 61.8543 57.625 50.2463 59.7546 33.8093Z" fill="#FF6C37"/>
<path d="M40.8277 19.2617L28.1699 31.9194L24.6006 28.35C37.0483 15.9023 38.2781 16.9821 40.8277 19.2617Z" fill="white"/>
<path d="M28.1698 32.2195C28.0798 32.2195 28.0198 32.1895 27.9598 32.1295L24.3605 28.5601C24.2405 28.4401 24.2405 28.2602 24.3605 28.1402C37.0182 15.4825 38.338 16.6823 41.0075 19.0818C41.0675 19.1418 41.0975 19.2018 41.0975 19.2918C41.0975 19.3818 41.0675 19.4418 41.0075 19.5018L28.3498 32.1295C28.3198 32.1895 28.2298 32.2195 28.1698 32.2195ZM25.0204 28.3502L28.1698 31.4996L40.3776 19.2918C38.158 17.3122 36.6583 16.7123 25.0204 28.3502Z" fill="#FF6C37"/>
<path d="M31.799 35.549L28.3496 32.0996L41.0073 19.4419C44.3967 22.8613 39.3276 28.4103 31.799 35.549Z" fill="white"/>
<path d="M31.7994 35.8486C31.7094 35.8486 31.6494 35.8186 31.5894 35.7586L28.1401 32.3092C28.0801 32.2492 28.0801 32.1892 28.0801 32.0993C28.0801 32.0093 28.1101 31.9493 28.1701 31.8893L40.8278 19.2316C40.9478 19.1116 41.1277 19.1116 41.2477 19.2316C42.0276 19.9515 42.4475 20.9713 42.4175 22.0211C42.3575 25.3505 38.5782 29.5797 32.0394 35.7586C31.9494 35.8186 31.8594 35.8486 31.7994 35.8486ZM28.77 32.0993C30.6896 34.0489 31.4995 34.8288 31.7994 35.1287C36.8385 30.3296 41.7276 25.4105 41.7576 22.0211C41.7876 21.2412 41.4877 20.4614 40.9778 19.8615L28.77 32.0993Z" fill="#FF6C37"/>
<path d="M24.6602 28.4399L27.2097 30.9895C27.2697 31.0495 27.2697 31.1094 27.2097 31.1694C27.1797 31.1994 27.1797 31.1994 27.1497 31.1994L21.8707 32.3392C21.6007 32.3692 21.3608 32.1892 21.3008 31.9193C21.2708 31.7693 21.3308 31.6194 21.4207 31.5294L24.4802 28.4699C24.5402 28.4099 24.6302 28.3799 24.6602 28.4399Z" fill="white"/>
<path d="M21.7808 32.6391C21.3309 32.6391 21.001 32.2791 21.001 31.8292C21.001 31.6193 21.091 31.4093 21.2409 31.2593L24.3004 28.1999C24.4804 28.0499 24.7203 28.0499 24.9003 28.1999L27.4498 30.7494C27.6298 30.8994 27.6298 31.1693 27.4498 31.3493C27.3898 31.4093 27.3298 31.4393 27.2399 31.4693L21.9608 32.6091C21.9008 32.6091 21.8408 32.6391 21.7808 32.6391ZM24.5703 28.7698L21.6309 31.7093C21.5709 31.7692 21.5409 31.8592 21.6009 31.9492C21.6309 32.0392 21.7208 32.0692 21.8108 32.0392L26.7599 30.9594L24.5703 28.7698Z" fill="#FF6C37"/>
<path d="M47.5163 12.2428C45.5967 10.3831 42.5072 10.4431 40.6476 12.3927C38.7879 14.3424 38.8479 17.4018 40.7975 19.2615C42.3872 20.7912 44.7868 21.0612 46.6765 19.9214L43.2571 16.502L47.5163 12.2428Z" fill="white"/>
<path d="M44.1571 20.9114C41.3076 20.9114 38.998 18.6018 38.998 15.7523C38.998 12.9028 41.3076 10.5933 44.1571 10.5933C45.4769 10.5933 46.7666 11.1032 47.7265 12.033C47.7865 12.093 47.8165 12.153 47.8165 12.243C47.8165 12.3329 47.7865 12.3929 47.7265 12.4529L43.6772 16.5022L46.8566 19.6816C46.9766 19.8016 46.9766 19.9816 46.8566 20.1015C46.8266 20.1315 46.8266 20.1315 46.7966 20.1615C46.0168 20.6415 45.087 20.9114 44.1571 20.9114ZM44.1571 11.2231C41.6376 11.2231 39.5979 13.2628 39.6279 15.7823C39.6279 18.3019 41.6676 20.3415 44.1871 20.3115C44.877 20.3115 45.5669 20.1615 46.1967 19.8316L43.0473 16.7122C42.9873 16.6522 42.9573 16.5922 42.9573 16.5022C42.9573 16.4122 42.9873 16.3522 43.0473 16.2922L47.0666 12.273C46.2567 11.5831 45.2369 11.2231 44.1571 11.2231Z" fill="#FF6C37"/>
<path d="M47.6061 12.3329L47.5461 12.2729L43.2568 16.5022L46.6462 19.8916C46.9762 19.6816 47.3061 19.4417 47.5761 19.1717C49.4957 17.282 49.4957 14.2226 47.6061 12.3329Z" fill="white"/>
<path d="M46.6764 20.2214C46.5864 20.2214 46.5264 20.1914 46.4664 20.1314L43.047 16.712C42.987 16.652 42.957 16.592 42.957 16.502C42.957 16.4121 42.987 16.3521 43.047 16.2921L47.3062 12.0329C47.4262 11.9129 47.6062 11.9129 47.7262 12.0329L47.8162 12.0928C49.8258 14.1025 49.8258 17.3419 47.8462 19.3815C47.5462 19.6815 47.2163 19.9514 46.8563 20.1614C46.7663 20.1914 46.7064 20.2214 46.6764 20.2214ZM43.6769 16.502L46.7064 19.5315C46.9463 19.3815 47.1863 19.1716 47.3662 18.9916C49.0759 17.2819 49.1659 14.4924 47.5162 12.6927L43.6769 16.502Z" fill="#FF6C37"/>
<path d="M41.3374 19.8016C40.6175 19.0818 39.4478 19.0818 38.7279 19.8016L27.4199 31.1096L29.3096 32.9992L41.2774 22.5011C42.0573 21.8413 42.1173 20.6715 41.4574 19.8916C41.3974 19.8616 41.3674 19.8316 41.3374 19.8016Z" fill="white"/>
<path d="M29.2795 33.2993C29.1895 33.2993 29.1295 33.2693 29.0695 33.2093L27.1798 31.3197C27.0598 31.1997 27.0598 31.0197 27.1798 30.8998L38.4878 19.5918C39.3276 18.752 40.6774 18.752 41.5172 19.5918C42.3571 20.4316 42.3571 21.7814 41.5172 22.6213C41.4873 22.6512 41.4573 22.6812 41.4273 22.7112L29.4594 33.2093C29.4294 33.2693 29.3694 33.2993 29.2795 33.2993ZM27.8397 31.1097L29.3094 32.5795L41.0673 22.2613C41.7272 21.7214 41.7872 20.7316 41.2473 20.0717C40.7074 19.4118 39.7176 19.3518 39.0577 19.8917C39.0277 19.9217 38.9977 19.9517 38.9377 19.9817L27.8397 31.1097Z" fill="#FF6C37"/>
<path d="M18.752 43.9773C18.632 44.0372 18.572 44.1572 18.602 44.2772L19.1119 46.4368C19.2319 46.7368 19.0519 47.0967 18.722 47.1867C18.482 47.2767 18.2121 47.1867 18.0621 47.0067L14.7627 43.7373L25.5308 32.9692L29.2501 33.0292L31.7696 35.5488C31.1697 36.0587 27.5404 39.568 18.752 43.9773Z" fill="white"/>
<path d="M18.5117 47.4868C18.2718 47.4868 18.0318 47.3968 17.8819 47.2168L14.6124 43.9474C14.5525 43.8874 14.5225 43.8274 14.5225 43.7374C14.5225 43.6475 14.5525 43.5875 14.6124 43.5275L25.3805 32.7594C25.4405 32.6994 25.5305 32.6694 25.5905 32.6694L29.3098 32.7294C29.3998 32.7294 29.4598 32.7594 29.5198 32.8194L32.0393 35.339C32.0993 35.3989 32.1293 35.4889 32.1293 35.5789C32.1293 35.6689 32.0993 35.7289 32.0093 35.7889L31.7993 35.9688C28.6199 38.7583 24.3007 41.5478 18.9317 44.2174L19.4416 46.347C19.5316 46.7369 19.3516 47.1568 18.9917 47.3668C18.8117 47.4568 18.6617 47.4868 18.5117 47.4868ZM15.2123 43.7374L18.3018 46.7969C18.3918 46.9469 18.5717 47.0068 18.7217 46.9169C18.8717 46.8269 18.9317 46.6469 18.8417 46.4969L18.3318 44.3373C18.2718 44.0674 18.3918 43.8274 18.6317 43.7074C23.9408 41.0379 28.23 38.2784 31.3794 35.5489L29.1598 33.3293L25.7104 33.2693L15.2123 43.7374Z" fill="#FF6C37"/>
<path d="M12.2131 46.3168L14.7926 43.7373L18.6319 47.5766L12.513 47.1567C12.2431 47.1267 12.0631 46.8867 12.0931 46.6168C12.0931 46.4968 12.1231 46.3768 12.2131 46.3168Z" fill="white"/>
<path d="M18.6316 47.8464L12.4827 47.4265C12.0328 47.3965 11.7328 47.0066 11.7628 46.5567C11.7928 46.3767 11.8528 46.1967 12.0028 46.0767L14.5823 43.4972C14.7023 43.3772 14.8822 43.3772 15.0022 43.4972L18.8415 47.3365C18.9315 47.4265 18.9615 47.5465 18.9015 47.6665C18.8415 47.7864 18.7515 47.8464 18.6316 47.8464ZM14.7923 44.1571L12.4227 46.5267C12.3327 46.5867 12.3327 46.7366 12.4227 46.7966C12.4527 46.8266 12.4827 46.8566 12.5427 46.8566L17.8517 47.2165L14.7923 44.1571Z" fill="#FF6C37"/>
<path d="M24.4806 34.3492C24.3006 34.3492 24.1807 34.1992 24.1807 34.0493C24.1807 33.9593 24.2107 33.8993 24.2706 33.8393L27.1801 30.9298C27.3001 30.8098 27.4801 30.8098 27.6 30.9298L29.4897 32.8195C29.5797 32.9095 29.6097 32.9995 29.5797 33.1194C29.5497 33.2094 29.4597 33.2994 29.3397 33.3294L24.5406 34.3492C24.5106 34.3492 24.4806 34.3492 24.4806 34.3492ZM27.3901 31.5597L25.4104 33.5394L28.6499 32.8495L27.3901 31.5597Z" fill="#FF6C37"/>
<path d="M29.2495 33.0291L25.9501 33.749C25.7102 33.809 25.4702 33.659 25.4102 33.419C25.3802 33.2691 25.4102 33.1191 25.5302 32.9991L27.3599 31.1694L29.2495 33.0291Z" fill="white"/>
<path d="M25.8905 34.0493C25.4706 34.0493 25.1406 33.7193 25.1406 33.2994C25.1406 33.0894 25.2306 32.9095 25.3506 32.7595L27.1803 30.9298C27.3002 30.8098 27.4802 30.8098 27.6002 30.9298L29.4898 32.8195C29.5798 32.9095 29.6098 32.9995 29.5798 33.1194C29.5498 33.2094 29.4598 33.2994 29.3399 33.3294L26.0405 34.0493C25.9805 34.0493 25.9205 34.0493 25.8905 34.0493ZM27.3902 31.5597L25.7705 33.1794C25.7105 33.2394 25.7105 33.2994 25.7405 33.3594C25.7705 33.4194 25.8305 33.4494 25.9205 33.4494L28.68 32.8495L27.3902 31.5597Z" fill="#FF6C37"/>
<path d="M47.6368 15.2124C47.5768 15.0324 47.3668 14.9424 47.1869 15.0024C47.0069 15.0624 46.9169 15.2723 46.9769 15.4523C46.9769 15.4823 47.0069 15.5123 47.0069 15.5423C47.1869 15.9022 47.1269 16.3522 46.8869 16.6821C46.7669 16.8321 46.7969 17.042 46.9169 17.162C47.0669 17.282 47.2769 17.252 47.3968 17.102C47.8468 16.5321 47.9367 15.8122 47.6368 15.2124Z" fill="#FF6C37"/>
</g>
<defs>
<clipPath id="clip0_50_617">
<rect width="60" height="60" fill="white"/>
</clipPath>
</defs>
</svg>
