<svg width="60" height="60" viewBox="0 0 60 60" fill="none">
<path d="M29.7146 5.74134C27.7356 5.75071 25.8465 5.919 24.1834 6.21337C19.2849 7.07868 18.3962 8.88993 18.3962 12.2307V16.6421H29.971V18.1126H14.0518C10.6881 18.1126 7.74244 20.1343 6.82088 23.9818C5.75775 28.3904 5.71088 31.142 6.82088 35.7456C7.64353 39.1726 9.60853 41.6138 12.9728 41.6138H16.9529V36.3254C16.9529 32.5046 20.2581 29.1348 24.1838 29.1348H35.7456C38.964 29.1348 41.5328 26.4845 41.5328 23.2529V12.2312C41.5328 9.09384 38.8862 6.73743 35.7456 6.21384C33.7562 5.8829 31.6932 5.73243 29.7146 5.74134ZM23.4549 9.28931C24.6503 9.28931 25.6271 10.2817 25.6271 11.5023C25.6271 12.7177 24.6507 13.7007 23.4549 13.7007C22.2549 13.7007 21.2832 12.7177 21.2832 11.5023C21.2828 10.2817 22.2549 9.28931 23.4549 9.28931Z" fill="url(#paint0_linear_50_650)"/>
<path d="M42.9763 18.1125V23.2528C42.9763 27.2372 39.5976 30.5911 35.7454 30.5911H24.1837C21.0168 30.5911 18.3965 33.3019 18.3965 36.4735V47.4961C18.3965 50.6325 21.1237 52.478 24.1837 53.3775C27.8474 54.4543 31.3612 54.6493 35.7454 53.3775C38.6591 52.5333 41.5326 50.8355 41.5326 47.4961V43.0842H29.9713V41.6133H47.3207C50.6845 41.6133 51.9388 39.2672 53.1088 35.745C54.3173 32.1193 54.2652 28.6322 53.1088 23.9813C52.2773 20.6321 50.6896 18.1121 47.3207 18.1121H42.9763V18.1125ZM36.4734 46.0252C37.6738 46.0252 38.6455 47.0082 38.6455 48.2246C38.6455 49.4443 37.6734 50.4366 36.4734 50.4366C35.278 50.4366 34.3016 49.4443 34.3016 48.2246C34.3016 47.0082 35.278 46.0252 36.4734 46.0252Z" fill="url(#paint1_linear_50_650)"/>
<path opacity="0.444" d="M45.6131 56.0612C45.6131 57.722 38.6681 59.0687 30.1017 59.0687C21.5348 59.0687 14.5898 57.722 14.5898 56.0612C14.5898 54.3999 21.5344 53.0532 30.1017 53.0532C38.6681 53.0532 45.6131 54.3995 45.6131 56.0612Z" fill="url(#paint2_radial_50_650)"/>
<defs>
<linearGradient id="paint0_linear_50_650" x1="4.84551" y1="7.1207" x2="31.5426" y2="29.8878" gradientUnits="userSpaceOnUse">
<stop stop-color="#5A9FD4"/>
<stop offset="1" stop-color="#306998"/>
</linearGradient>
<linearGradient id="paint1_linear_50_650" x1="41.5874" y1="44.0402" x2="32.0134" y2="30.6142" gradientUnits="userSpaceOnUse">
<stop stop-color="#FFD43B"/>
<stop offset="1" stop-color="#FFE873"/>
</linearGradient>
<radialGradient id="paint2_radial_50_650" cx="0" cy="0" r="1" gradientUnits="userSpaceOnUse" gradientTransform="translate(30.039 55.9751) rotate(-90) scale(3.00859 13.2252)">
<stop stop-color="#B8B8B8" stop-opacity="0.498"/>
<stop offset="1" stop-color="#7F7F7F" stop-opacity="0"/>
</radialGradient>
</defs>
</svg>
