<svg width="50" height="50" viewBox="0 0 50 50" fill="none">
<path d="M25.002 10.0007C18.3352 10.0007 14.1699 13.3328 12.502 19.9996C15.0012 16.6671 17.9187 15.4175 21.2512 16.2507C23.1539 16.725 24.5137 18.1046 26.0195 19.6335C28.4703 22.1207 31.307 25 37.502 25C44.1684 25 48.334 21.6675 50.002 14.9992C47.5023 18.3335 44.5852 19.5832 41.2523 18.75C39.35 18.2753 37.9918 16.896 36.484 15.3671C34.0348 12.88 31.1988 10.0007 25.002 10.0007ZM12.502 25C5.83555 25 1.66992 28.3324 0.00195312 35.0007C2.50117 31.6664 5.41836 30.4167 8.75117 31.25C10.6539 31.7246 12.0137 33.1039 13.5195 34.6328C15.9703 37.1199 18.807 39.9992 25.002 39.9992C31.6684 39.9992 35.834 36.6671 37.502 30.0003C35.0023 33.3328 32.0852 34.5824 28.7523 33.7492C26.85 33.275 25.4918 31.8953 23.984 30.3664C21.5348 27.8792 18.6988 25 12.502 25Z" fill="#38B2AC"/>
</svg>
