<svg width="70" height="70" viewBox="0 0 70 70" fill="none">
<path d="M34.9208 31.0387C32.1873 31.0387 30.2165 32.8213 30.2165 35.4954C30.2165 38.1694 32.4349 39.9521 35.1684 39.9521C36.8198 39.9521 38.2757 39.2984 39.1769 38.1966L37.2828 37.1023C36.7827 37.6494 36.0226 37.9688 35.1684 37.9688C33.9824 37.9688 32.9747 37.3499 32.6008 36.3595H39.5384C39.5929 36.0822 39.6251 35.795 39.6251 35.4929C39.6251 32.8213 37.6542 31.0387 34.9208 31.0387ZM32.5785 34.6288C32.888 33.6409 33.7348 33.0194 34.9183 33.0194C36.1043 33.0194 36.951 33.6409 37.2581 34.6288H32.5785ZM61.5818 31.0387C58.8483 31.0387 56.8775 32.8213 56.8775 35.4954C56.8775 38.1694 59.0959 39.9521 61.8294 39.9521C63.4808 39.9521 64.9367 39.2984 65.8379 38.1966L63.9438 37.1023C63.4437 37.6494 62.6836 37.9688 61.8294 37.9688C60.6434 37.9688 59.6357 37.3499 59.2618 36.3595H66.1994C66.2539 36.0822 66.2861 35.795 66.2861 35.4929C66.2861 32.8213 64.3152 31.0387 61.5818 31.0387ZM59.242 34.6288C59.5515 33.6409 60.3983 33.0194 61.5818 33.0194C62.7678 33.0194 63.6145 33.6409 63.9216 34.6288H59.242ZM49.5784 35.4954C49.5784 36.9809 50.549 37.9713 52.0543 37.9713C53.0744 37.9713 53.8395 37.5083 54.2332 36.7532L56.1347 37.85C55.3473 39.1623 53.8717 39.9521 52.0543 39.9521C49.3184 39.9521 47.35 38.1694 47.35 35.4954C47.35 32.8213 49.3209 31.0387 52.0543 31.0387C53.8717 31.0387 55.3449 31.8285 56.1347 33.1407L54.2332 34.2376C53.8395 33.4824 53.0744 33.0194 52.0543 33.0194C50.5514 33.0194 49.5784 34.0098 49.5784 35.4954ZM70 28.3151V39.7045H67.7716V28.3151H70ZM9.14863 27.0771L18.2973 42.9232H0L9.14863 27.0771ZM32.0214 28.3151L25.1606 40.1997L18.2997 28.3151H20.8722L25.1606 35.743L29.4489 28.3151H32.0214ZM46.6072 31.2863V33.6855C46.3596 33.6137 46.0972 33.5641 45.8149 33.5641C44.3764 33.5641 43.339 34.5545 43.339 36.0401V39.7045H41.1106V31.2863H43.339V33.5641C43.339 32.3064 44.8023 31.2863 46.6072 31.2863Z" fill="white"/>
</svg>
