<svg width="42" height="35" viewBox="0 0 42 35" fill="none" xmlns="http://www.w3.org/2000/svg">
<path d="M2 31L6.5 26.5L10 23L13.5 18L17 13L20 5V28.5L21 31.5" stroke="#ECBD00" stroke-width="3" stroke-linejoin="round"/>
<path d="M9.5 24L22 23H24.5V33L27 28C28.6958 26.3333 32.4288 23.2 33.7938 24C35.1588 24.8 37.5 31 38.5 34" stroke="#ECBD00" stroke-width="3" stroke-linejoin="round"/>
<path d="M24.5 23V15C24.5 13.5 24.9 9.7 26.5 6.5C28.1 3.3 31.1667 2.5 32.5 2.5C33.6667 2.33333 36.4 2.6 38 5C39.6 7.4 39.3333 8.33333 39 8.5" stroke="#ECBD00" stroke-width="3" stroke-linejoin="round"/>
<path d="M41 20.5C39.6667 21 36.4 22 34 22C31.6 22 29 19.3333 28 18C27.1667 16.8333 25.6 13.7 26 10.5C26.4 7.3 27.1667 5.5 27.5 5" stroke="#ECBD00" stroke-width="3" stroke-linejoin="round"/>
</svg>
